<svg width="120" height="120" viewBox="0 0 120 120" xmlns="http://www.w3.org/2000/svg">
  <defs>
    <!-- Gradient definitions -->
    <linearGradient id="techGradient" x1="0%" y1="0%" x2="100%" y2="100%">
      <stop offset="0%" style="stop-color:#a855f7;stop-opacity:1" />
      <stop offset="50%" style="stop-color:#06b6d4;stop-opacity:1" />
      <stop offset="100%" style="stop-color:#ef4444;stop-opacity:1" />
    </linearGradient>
    
    <linearGradient id="beamGradient" x1="0%" y1="0%" x2="100%" y2="0%">
      <stop offset="0%" style="stop-color:#06b6d4;stop-opacity:0" />
      <stop offset="30%" style="stop-color:#a855f7;stop-opacity:0.8" />
      <stop offset="70%" style="stop-color:#06b6d4;stop-opacity:0.8" />
      <stop offset="100%" style="stop-color:#ef4444;stop-opacity:0" />
    </linearGradient>
    
    <linearGradient id="towerGradient" x1="0%" y1="0%" x2="0%" y2="100%">
      <stop offset="0%" style="stop-color:#a855f7;stop-opacity:1" />
      <stop offset="100%" style="stop-color:#1e293b;stop-opacity:1" />
    </linearGradient>
    
    <!-- Glow effects -->
    <filter id="neonGlow">
      <feGaussianBlur stdDeviation="4" result="coloredBlur"/>
      <feMerge> 
        <feMergeNode in="coloredBlur"/>
        <feMergeNode in="SourceGraphic"/>
      </feMerge>
    </filter>
    
    <filter id="softGlow">
      <feGaussianBlur stdDeviation="2" result="softBlur"/>
      <feMerge> 
        <feMergeNode in="softBlur"/>
        <feMergeNode in="SourceGraphic"/>
      </feMerge>
    </filter>
  </defs>
  
  <g transform="translate(60,60)">
    
    <!-- Futuristic lighthouse tower - geometric and angular -->
    <g>
      <!-- Base platform -->
      <polygon points="-12,30 12,30 8,25 -8,25" fill="url(#towerGradient)" opacity="0.8"/>
      
      <!-- Tower segments with tech details -->
      <!-- Bottom segment -->
      <polygon points="-8,25 8,25 6,5 -6,5" fill="url(#towerGradient)"/>
      <rect x="-6" y="20" width="12" height="1" fill="#06b6d4" opacity="0.6"/>
      <rect x="-6" y="15" width="12" height="1" fill="#06b6d4" opacity="0.4"/>
      <rect x="-6" y="10" width="12" height="1" fill="#06b6d4" opacity="0.6"/>
      
      <!-- Middle segment -->
      <polygon points="-6,5 6,5 4,-15 -4,-15" fill="url(#towerGradient)"/>
      <rect x="-4" y="0" width="8" height="1" fill="#a855f7" opacity="0.8"/>
      <rect x="-4" y="-5" width="8" height="1" fill="#a855f7" opacity="0.6"/>
      <rect x="-4" y="-10" width="8" height="1" fill="#a855f7" opacity="0.8"/>
      
      <!-- Top beacon housing -->
      <polygon points="-4,-15 4,-15 6,-25 -6,-25" fill="url(#techGradient)" filter="url(#softGlow)"/>
      
      <!-- Tech details on tower -->
      <circle cx="-3" cy="18" r="1" fill="#06b6d4" opacity="0.8"/>
      <circle cx="3" cy="18" r="1" fill="#06b6d4" opacity="0.8"/>
      <circle cx="0" cy="-3" r="1.5" fill="#a855f7" opacity="0.9"/>
    </g>
    
    <!-- Holographic light beams -->
    <g opacity="0.9">
      <!-- Main forward beam -->
      <polygon points="0,-20 -25,-35 -20,-30 0,-18 20,-30 25,-35" 
               fill="url(#beamGradient)" filter="url(#neonGlow)" opacity="0.8"/>
      
      <!-- Side scanning beams -->
      <polygon points="0,-20 -35,-15 -30,-10 -5,-18 -25,-5 -30,0" 
               fill="url(#beamGradient)" filter="url(#neonGlow)" opacity="0.6"
               transform="rotate(-30)"/>
      
      <polygon points="0,-20 -35,-15 -30,-10 -5,-18 -25,-5 -30,0" 
               fill="url(#beamGradient)" filter="url(#neonGlow)" opacity="0.6"
               transform="rotate(30)"/>
    </g>
    
    <!-- Digital progress indicators -->
    <g>
      <!-- Progress bars floating around the tower -->
      <rect x="-35" y="10" width="15" height="2" rx="1" fill="#1e293b" opacity="0.8"/>
      <rect x="-35" y="10" width="10" height="2" rx="1" fill="#a855f7"/>
      
      <rect x="20" y="5" width="15" height="2" rx="1" fill="#1e293b" opacity="0.8"/>
      <rect x="20" y="5" width="12" height="2" rx="1" fill="#06b6d4"/>
      
      <rect x="-30" y="-5" width="15" height="2" rx="1" fill="#1e293b" opacity="0.8"/>
      <rect x="-30" y="-5" width="8" height="2" rx="1" fill="#ef4444"/>
      
      <!-- Data points/nodes -->
      <circle cx="-25" cy="20" r="2" fill="#a855f7" opacity="0.8" filter="url(#softGlow)"/>
      <circle cx="25" cy="15" r="2" fill="#06b6d4" opacity="0.8" filter="url(#softGlow)"/>
      <circle cx="20" cy="-10" r="2" fill="#ef4444" opacity="0.8" filter="url(#softGlow)"/>
      
      <!-- Connection lines -->
      <line x1="-25" y1="20" x2="-8" y2="15" stroke="#a855f7" stroke-width="1" opacity="0.4"/>
      <line x1="25" y1="15" x2="8" y2="10" stroke="#06b6d4" stroke-width="1" opacity="0.4"/>
      <line x1="20" y1="-10" x2="6" y2="-5" stroke="#ef4444" stroke-width="1" opacity="0.4"/>
    </g>
    
    <!-- Central beacon light -->
    <circle cx="0" cy="-20" r="4" fill="url(#techGradient)" filter="url(#neonGlow)"/>
    <circle cx="0" cy="-20" r="2" fill="#ffffff" opacity="0.9"/>
    
    <!-- Scanning effect -->
    <g opacity="0.7">
      <animateTransform attributeName="transform" 
                        type="rotate" 
                        values="0;360" 
                        dur="8s" 
                        repeatCount="indefinite"/>
      <line x1="0" y1="-20" x2="0" y2="-45" stroke="#06b6d4" stroke-width="2" opacity="0.8"/>
    </g>
    
  </g>
  
</svg>